<svg xmlns="http://www.w3.org/2000/svg" viewBox="0 0 375.12 31.31"><defs><style>.cls-1{fill:#288be4;}.cls-2,.cls-3{fill:#091f2f;}.cls-3{font-size:21.03px;font-family:Lora-BoldItalic, Lora;font-weight:700;font-style:italic;}.cls-4{letter-spacing:-0.02em;}</style></defs><title>Analyze Boston logo beta</title><g id="Layer_2" data-name="Layer 2"><g id="Layer_1-2" data-name="Layer 1"><rect class="cls-1" x="172.4" y="26.97" width="136.54" height="4.34"/><path class="cls-2" d="M17.53,19.69H7.69l-1.59,4H0L9.77,1h6.1l9.54,22.75H19.08Zm-1.75-4.54L12.66,7,9.48,15.15Z"/><path class="cls-2" d="M32.68,1,43,14.66V1h5.52V23.72H43.33L33,10.08V23.72H27.46V1Z"/><path class="cls-2" d="M68.13,19.69H58.29l-1.59,4H50.6L60.37,1h6.1L76,23.72H69.68Zm-1.75-4.54L63.26,7l-3.18,8.11Z"/><path class="cls-2" d="M84,1V18.65h9.64v5.06H78.06V1Z"/><path class="cls-2" d="M108.28,16.45v7.27h-5.94V16.61L94,1H99.9l5.39,9.77L110.55,1h5.94Z"/><path class="cls-2" d="M137.16,1V4.86l-12,14.09h12.2v4.77H117.2V19.85l12-14.12H117.62V1Z"/><path class="cls-2" d="M158.42,1V5.7h-12V10h10.84v4.71l-10.84,0V19h12.33v4.74H140.47V1Z"/><path class="cls-2" d="M191.37,6.71a5,5,0,0,1-3.93,4.93,5.62,5.62,0,0,1,4.67,5.74c0,3.89-3.41,6.33-8.76,6.33H172.12V1h10.81C188.09,1,191.37,3.2,191.37,6.71Zm-6.1,1c0-1.36-1-2.17-2.66-2.14h-4.54V10h4.54C184.26,10,185.26,9.17,185.26,7.75Zm.71,8.89c0-1.43-1.3-2.34-3.38-2.3h-4.54v4.77h4.54C184.68,19.11,186,18.2,186,16.64Z"/><path class="cls-2" d="M218.5,12.32C218.5,19,213.24,24,206.2,24s-12.3-5-12.3-11.65S199.16.8,206.2.8,218.5,5.73,218.5,12.32Zm-18.5,0a6.42,6.42,0,0,0,6.26,6.56,6.29,6.29,0,0,0,6.13-6.56,6.24,6.24,0,0,0-6.13-6.49A6.34,6.34,0,0,0,200,12.36Z"/><path class="cls-2" d="M229.79,5.54c-1.43,0-2.37.52-2.37,1.56,0,3.76,12,1.62,12,9.8,0,4.64-4.09,7-9.15,7a17.1,17.1,0,0,1-10.48-3.63l2.3-4.64a14.53,14.53,0,0,0,8.24,3.44c1.75,0,2.86-.65,2.86-1.85,0-3.86-12-1.53-12-9.57,0-4.25,3.6-6.95,9.09-6.95a17.45,17.45,0,0,1,9.09,2.56L237.13,8A17.68,17.68,0,0,0,229.79,5.54Z"/><path class="cls-2" d="M259.95,1v4.9h-6.82V23.72h-5.94V5.86h-6.75V1Z"/><path class="cls-2" d="M284.35,12.32C284.35,19,279.1,24,272.05,24s-12.3-5-12.3-11.65S265,.8,272.05.8,284.35,5.73,284.35,12.32Zm-18.5,0a6.42,6.42,0,0,0,6.26,6.56,6.29,6.29,0,0,0,6.13-6.56,6.24,6.24,0,0,0-6.13-6.49A6.34,6.34,0,0,0,265.85,12.36Z"/><path class="cls-2" d="M292.53,1l10.32,13.7V1h5.52V23.72h-5.19L292.86,10.08V23.72h-5.55V1Z"/><text class="cls-3" transform="translate(319.4 17.88)">(Bet<tspan class="cls-4" x="38.29" y="0">a</tspan><tspan x="49.48" y="0">)</tspan></text></g></g></svg>