<svg xmlns="http://www.w3.org/2000/svg" viewBox="0 0 308.95 30.61"><defs><style>.cls-1{fill:#288be4;}.cls-2{fill:#091f2f;}</style></defs><title>Analyze Boston logo</title><g id="Layer_2" data-name="Layer 2"><g id="Layer_1-2" data-name="Layer 1"><rect class="cls-1" x="172.4" y="26.27" width="136.54" height="4.34"/><path class="cls-2" d="M17.53,19H7.69L6.1,23H0L9.77.26h6.1L25.41,23H19.08Zm-1.75-4.54L12.66,6.33,9.48,14.44Z"/><path class="cls-2" d="M32.68.26,43,14V.26h5.52V23H43.33L33,9.38V23H27.46V.26Z"/><path class="cls-2" d="M68.13,19H58.29L56.7,23H50.6L60.37.26h6.1L76,23H69.68Zm-1.75-4.54L63.26,6.33l-3.18,8.11Z"/><path class="cls-2" d="M84,.26V17.95h9.64V23H78.06V.26Z"/><path class="cls-2" d="M108.28,15.74V23h-5.94V15.9L94,.26H99.9L105.29,10,110.55.26h5.94Z"/><path class="cls-2" d="M137.16.26V4.15l-12,14.09h12.2V23H117.2V19.15L129.21,5H117.62V.26Z"/><path class="cls-2" d="M158.42.26V5h-12V9.25h10.84V14l-10.84,0v4.28h12.33V23H140.47V.26Z"/><path class="cls-2" d="M191.37,6a5,5,0,0,1-3.93,4.93,5.62,5.62,0,0,1,4.67,5.74c0,3.89-3.41,6.33-8.76,6.33H172.12V.26h10.81C188.09.26,191.37,2.5,191.37,6Zm-6.1,1c0-1.36-1-2.17-2.66-2.14h-4.54V9.31h4.54C184.26,9.31,185.26,8.47,185.26,7Zm.71,8.89c0-1.43-1.3-2.34-3.38-2.3h-4.54V18.4h4.54C184.68,18.4,186,17.49,186,15.94Z"/><path class="cls-2" d="M218.5,11.62c0,6.65-5.26,11.65-12.3,11.65s-12.3-5-12.3-11.65S199.16.1,206.2.1,218.5,5,218.5,11.62Zm-18.5,0a6.42,6.42,0,0,0,6.26,6.56,6.29,6.29,0,0,0,6.13-6.56,6.24,6.24,0,0,0-6.13-6.49A6.34,6.34,0,0,0,200,11.65Z"/><path class="cls-2" d="M229.79,4.84c-1.43,0-2.37.52-2.37,1.56,0,3.76,12,1.62,12,9.8,0,4.64-4.09,7-9.15,7a17.1,17.1,0,0,1-10.48-3.63l2.3-4.64a14.53,14.53,0,0,0,8.24,3.44c1.75,0,2.86-.65,2.86-1.85,0-3.86-12-1.53-12-9.57,0-4.25,3.6-6.95,9.09-6.95a17.45,17.45,0,0,1,9.09,2.56l-2.24,4.71A17.68,17.68,0,0,0,229.79,4.84Z"/><path class="cls-2" d="M259.95.26v4.9h-6.82V23h-5.94V5.16h-6.75V.26Z"/><path class="cls-2" d="M284.35,11.62c0,6.65-5.26,11.65-12.3,11.65s-12.3-5-12.3-11.65S265,.1,272.05.1,284.35,5,284.35,11.62Zm-18.5,0a6.42,6.42,0,0,0,6.26,6.56,6.29,6.29,0,0,0,6.13-6.56,6.24,6.24,0,0,0-6.13-6.49A6.34,6.34,0,0,0,265.85,11.65Z"/><path class="cls-2" d="M292.53.26,302.85,14V.26h5.52V23h-5.19L292.86,9.38V23h-5.55V.26Z"/></g></g></svg>