<svg width="179" height="40" xmlns="http://www.w3.org/2000/svg">
 <!-- Generator: Sketch 3.3.3 (12072) - http://www.bohemiancoding.com/sketch -->
 <title>logo</title>
 <desc>Created with Sketch.</desc>

 <g>
  <title>background</title>
  <rect fill="none" id="canvas_background" height="42" width="181" y="-1" x="-1"/>
 </g>
 <g>
  <title>Layer 1</title>
  <g fill-rule="evenodd" fill="none" id="Page-1">
   <g stroke="null" id="TOPIC-WINTER">
    <g stroke="null" id="TOP-NAV">
     <g stroke="null" id="logo">
      <path stroke="null" fill="#091F2F" id="Fill-1" d="m8.51429,13.32667c1.72923,0 3.1423,-0.68667 4.24021,-2.06l2.25526,2.33133c-1.78933,2.02267 -3.89814,3.03367 -6.3261,3.03367c-2.42829,0 -4.42818,-0.77 -5.99899,-2.309c-1.57115,-1.53934 -2.35656,-3.48234 -2.35656,-5.829c0,-2.34634 0.80035,-4.30467 2.40172,-5.87434c1.60137,-1.56933 3.55941,-2.354 5.87479,-2.354c2.58603,0 4.75097,0.98867 6.49547,2.96534l-2.18818,2.49c-1.11219,-1.38834 -2.4957,-2.08234 -4.14921,-2.08234c-1.32307,0 -2.45486,0.43367 -3.39403,1.30134c-0.93983,0.868 -1.40942,2.03733 -1.40942,3.50866c0,1.47134 0.44302,2.65234 1.33038,3.54267c0.88703,0.89067 1.96203,1.33567 3.22466,1.33567"/>
      <path stroke="null" fill="#091F2F" id="Fill-2" d="m17.68912,0.62733l3.51823,0l0,15.823l-3.51823,0l0,-15.823z"/>
      <path stroke="null" fill="#091F2F" id="Fill-3" d="m31.53588,3.68333l0,12.767l-3.51823,0l0,-12.767l-4.46537,0l0,-3.056l12.44897,0l0,3.056l-4.46537,0"/>
      <path stroke="null" fill="#091F2F" id="Fill-4" d="m46.33211,16.45033l-3.51823,0l0,-6.24766l-5.45768,-9.57534l3.81148,0l3.40531,5.88567l3.40565,-5.88567l3.81114,0l-5.45767,9.57534l0,6.24766"/>
      <path stroke="null" fill="#091F2F" id="Fill-5" d="m68.04491,7.95367c0,1.052 -0.1893,2.009 -0.56789,2.87066c-0.37859,0.862 -0.89898,1.523 -1.56052,1.984c-0.6612,0.46067 -1.42237,0.69134 -2.28383,0.69134c-0.99595,0 -1.78701,-0.298 -2.37316,-0.89467c-0.58648,-0.596 -0.87972,-1.407 -0.87972,-2.433c0,-1.036 0.18564,-1.98633 0.55659,-2.851c0.37095,-0.864 0.89102,-1.537 1.56019,-2.019c0.66918,-0.48167 1.4423,-0.72233 2.31936,-0.72233c1.01124,0 1.80229,0.302 2.37316,0.906c0.57088,0.604 0.85582,1.42666 0.85582,2.468l0,0zm-1.84413,-0.078c0,-0.557 -0.1272,-0.993 -0.38158,-1.30834c-0.25372,-0.315 -0.61704,-0.47233 -1.08895,-0.47233c-0.48253,0 -0.91459,0.186 -1.29617,0.55833c-0.38125,0.37234 -0.67681,0.87767 -0.88703,1.51534c-0.20988,0.638 -0.31516,1.31866 -0.31516,2.04233c0,0.57833 0.12852,1.02067 0.38523,1.328c0.25705,0.30733 0.63696,0.461 1.14009,0.461c0.46693,0 0.88736,-0.177 1.26097,-0.53133c0.37328,-0.354 0.66353,-0.85 0.87109,-1.488c0.20756,-0.63767 0.31151,-1.33967 0.31151,-2.105l0,0z"/>
      <path stroke="null" fill="#091F2F" id="Fill-6" d="m67.8151,17.202c-0.46693,0 -0.85316,-0.06 -1.15935,-0.18l0,-1.484c0.33209,0.10433 0.62766,0.15633 0.88703,0.15633c0.69541,0 1.15436,-0.534 1.37753,-1.60133l1.68838,-7.98233l-1.39248,0l0.16339,-0.828l1.50938,-0.59367l0.16339,-0.71867c0.22815,-1.031 0.57719,-1.76366 1.04677,-2.19866c0.46925,-0.43467 1.13444,-0.65234 1.9959,-0.65234c0.59678,0 1.14441,0.112 1.64189,0.336l-0.47424,1.37467c-0.3839,-0.14567 -0.73692,-0.21867 -1.05872,-0.21867c-0.358,0 -0.6446,0.112 -0.8598,0.33567c-0.21553,0.224 -0.38025,0.59133 -0.49416,1.10167l-0.14014,0.67166l1.78236,0l-0.28826,1.39034l-1.78203,0l-1.73521,8.22466c-0.20789,0.984 -0.54762,1.70767 -1.01953,2.17134c-0.47191,0.46333 -1.08928,0.69533 -1.8521,0.69533"/>
      <path stroke="null" fill="#091F2F" id="Fill-7" d="m90.49297,16.45033l-6.9013,0l0,-15.823l6.13416,0c1.06735,0 1.98859,0.12867 2.76304,0.385c0.77378,0.25667 1.35661,0.60367 1.74782,1.04134c0.7067,0.815 1.05972,1.73566 1.05972,2.76166c0,1.23734 -0.39851,2.158 -1.19521,2.76167c-0.27066,0.21133 -0.45896,0.34333 -0.5639,0.396c-0.10528,0.053 -0.29324,0.13967 -0.5639,0.26033c0.97736,0.21167 1.75546,0.653 2.3343,1.32434c0.57852,0.67166 0.8681,1.50533 0.8681,2.50133c0,1.10167 -0.3756,2.075 -1.12746,2.92c-0.87209,0.981 -2.39077,1.47133 -4.55537,1.47133l0,0zm-3.38307,-9.41666l1.66879,0c0.97736,0 1.70266,-0.10534 2.17656,-0.317c0.47323,-0.211 0.71035,-0.66767 0.71035,-1.36934c0,-0.70166 -0.21819,-1.166 -0.65423,-1.39233c-0.43604,-0.22633 -1.17296,-0.33933 -2.2101,-0.33933l-1.69137,0l0,3.418l0,0zm0,6.42866l2.41301,0c1.00725,0 1.76277,-0.12433 2.26656,-0.37333c0.50346,-0.249 0.75585,-0.73933 0.75585,-1.47167c0,-0.73166 -0.26733,-1.21433 -0.80068,-1.44866c-0.53434,-0.23367 -1.38717,-0.35067 -2.5598,-0.35067l-2.07494,0l0,3.64433l0,0z"/>
      <path stroke="null" fill="#091F2F" id="Fill-8" d="m112.30108,14.266c-1.59406,1.56167 -3.55609,2.343 -5.88641,2.343c-2.33065,0 -4.29235,-0.78133 -5.88608,-2.343c-1.59373,-1.562 -2.39076,-3.50467 -2.39076,-5.829c0,-2.32367 0.79703,-4.267 2.39076,-5.82867c1.59373,-1.562 3.55543,-2.343 5.88608,-2.343c2.33032,0 4.29235,0.781 5.88641,2.343c1.5934,1.56167 2.3901,3.505 2.3901,5.82867c0,2.32433 -0.7967,4.267 -2.3901,5.829l0,0zm-1.19522,-5.81767c0,-1.411 -0.45132,-2.61433 -1.35329,-3.61033c-0.90231,-0.99633 -2.01118,-1.494 -3.32661,-1.494c-1.31543,0 -2.4243,0.49767 -3.32628,1.494c-0.9023,0.996 -1.35329,2.19933 -1.35329,3.61033c0,1.41134 0.45099,2.611 1.35329,3.59934c0.90198,0.98833 2.01085,1.48266 3.32628,1.48266c1.31543,0 2.4243,-0.49433 3.32661,-1.48266c0.90197,-0.98834 1.35329,-2.188 1.35329,-3.59934l0,0z"/>
      <path stroke="null" fill="#091F2F" id="Fill-9" d="m121.21787,3.78533c-0.33841,0.27934 -0.50744,0.649 -0.50744,1.10934c0,0.46033 0.20656,0.826 0.62035,1.09766c0.41313,0.27167 1.36758,0.59234 2.864,0.962c1.49577,0.37 2.65744,0.92467 3.48436,1.664c0.82659,0.73934 1.24038,1.81867 1.24038,3.23667c0,1.41867 -0.53003,2.56933 -1.59008,3.45233c-1.05972,0.88267 -2.45452,1.32434 -4.18342,1.32434c-2.4957,0 -4.744,-0.92834 -6.74288,-2.78434l2.09685,-2.58066c1.69901,1.494 3.27049,2.241 4.71378,2.241c0.64626,0 1.1537,-0.13934 1.522,-0.41867c0.36862,-0.27933 0.55294,-0.65667 0.55294,-1.132c0,-0.47533 -0.19561,-0.85233 -0.58648,-1.13167c-0.39121,-0.27933 -1.16566,-0.562 -2.32302,-0.849c-1.83483,-0.43766 -3.1765,-1.00733 -4.02567,-1.709c-0.8495,-0.70166 -1.27392,-1.803 -1.27392,-3.305c0,-1.50133 0.537,-2.65966 1.61232,-3.47466c1.07467,-0.815 2.41667,-1.22234 4.02535,-1.22234c1.05241,0 2.10482,0.181 3.15757,0.54334c1.05208,0.362 1.96933,0.87533 2.75142,1.53933l-1.7817,2.58033c-1.36824,-1.041 -2.78164,-1.56166 -4.24021,-1.56166c-0.58615,0 -1.04843,0.13966 -1.3865,0.41866"/>
      <path stroke="null" fill="#091F2F" id="Fill-10" d="m138.67751,3.68333l0,12.767l-3.51823,0l0,-12.767l-4.46504,0l0,-3.056l12.44864,0l0,3.056l-4.46537,0"/>
      <path stroke="null" fill="#091F2F" id="Fill-11" d="m158.56444,14.266c-1.59406,1.56167 -3.55642,2.343 -5.88641,2.343c-2.33065,0 -4.29268,-0.78133 -5.88641,-2.343c-1.5934,-1.562 -2.39043,-3.50467 -2.39043,-5.829c0,-2.32367 0.79703,-4.267 2.39043,-5.82867c1.59373,-1.562 3.55576,-2.343 5.88641,-2.343c2.32999,0 4.29235,0.781 5.88641,2.343c1.5934,1.56167 2.3901,3.505 2.3901,5.82867c0,2.32433 -0.7967,4.267 -2.3901,5.829l0,0zm-1.19554,-5.81767c0,-1.411 -0.45099,-2.61433 -1.35296,-3.61033c-0.90231,-0.99633 -2.01151,-1.494 -3.32695,-1.494c-1.31543,0 -2.42397,0.49767 -3.32594,1.494c-0.90231,0.996 -1.35363,2.19933 -1.35363,3.61033c0,1.41134 0.45132,2.611 1.35363,3.59934c0.90197,0.98833 2.01051,1.48266 3.32594,1.48266c1.31544,0 2.42464,-0.49433 3.32695,-1.48266c0.90197,-0.98834 1.35296,-2.188 1.35296,-3.59934l0,0z"/>
      <path stroke="null" fill="#091F2F" id="Fill-12" d="m175.00687,0.62733l3.51823,0l0,15.823l-3.51823,0l-7.51003,-9.91466l0,9.91466l-3.51823,0l0,-15.823l3.29274,0l7.73552,10.18634l0,-10.18634"/>
      <path stroke="null" fill="#FB4D42" id="Fill-13" d="m83,20l96,0l0,3.5l-96,0l0,-3.5z"/>
     </g>
    </g>
   </g>
  </g>
  <text style="cursor: move;" font-weight="normal" font-style="italic" stroke="#288be4" transform="matrix(0.6543308081015198,0,0,0.5714285969734191,52.218152333493784,19.99999892711639) " xml:space="preserve" text-anchor="start" font-family="Arvo, sans-serif" font-size="24" id="svg_1" y="25.5" x="84.311068" stroke-width="0" fill="#000">open data</text>
 </g>
</svg>