<svg width="400" height="400" xmlns="http://www.w3.org/2000/svg" xmlns:xlink="http://www.w3.org/1999/xlink">
 <!-- Created with Method Draw - http://github.com/duopixel/Method-Draw/ -->

 <g>
  <title>background</title>
  <rect fill="#091f2f" id="canvas_background" height="402" width="402" y="-1" x="-1"/>
  <g display="none" overflow="visible" y="0" x="0" height="100%" width="100%" id="canvasGrid">
   <rect fill="url(#gridpattern)" stroke-width="0" y="0" x="0" height="100%" width="100%"/>
  </g>
 </g>
 <g>
  <title>Layer 1</title>
  <g stroke="null" id="svg_178">
   <g stroke="null" transform="matrix(2.1789559466030592,0,0,2.1789559466030592,-2339.025313085922,-1562.6350536130478) " id="svg_114"/>
   <g stroke="null" transform="matrix(2.1789559466030592,0,0,2.1789559466030592,-2339.025313085922,-1562.6350536130478) " id="svg_59">
    <g stroke="null" id="svg_116">
     <defs fill="#0C1F2E" stroke="#288be4" transform="translate(22.946807861328125,0) translate(0,22.946788787841797) translate(0,-22.946762084960938) translate(-22.94673728942871,0) translate(22.946807861328125,0) translate(0,22.946788787841797) translate(0,-22.946762084960938) translate(-64.25093841552734,0) translate(0,1.243476390838623) translate(96.34132385253906,0) translate(-101.15997314453125,0) translate(-1.8357415199279785,8.719772338867188) translate(-0.45893537998199463,-11.473384857177734) translate(-28.95466423034668,-46.53428268432617) translate(1098.2708740234375,0) translate(0,787.4299926757812) ">
      <path fill="#0C1F2E" stroke="#288be4" d="m-225.1,-268.6l-1.5,0l0,1.5l0,35l0,1.5l1.5,0l139,0l1.5,0l0,-1.5l0,-23l0,-0.6l-0.4,-0.4l-11.4,-12l-0.4,-0.5l-0.6,0l-127.7,0zm0,3l127.6,0l-1.1,-0.5l11.4,12l-0.4,-1l0,23l1.5,-1.5l-139,0l1.5,1.5l0,-35l-1.5,1.5zm-21.5,-23l182,0l0,78l-182,0l0,-78z" id="svg_113"/>
     </defs>
     <clipPath fill="#0C1F2E" stroke="#288be4" transform="translate(22.946807861328125,0) translate(0,22.946788787841797) translate(0,-22.946762084960938) translate(-22.94673728942871,0) translate(22.946807861328125,0) translate(0,22.946788787841797) translate(0,-22.946762084960938) translate(-64.25093841552734,0) translate(0,1.243476390838623) translate(96.34132385253906,0) translate(-101.15997314453125,0) translate(-1.8357415199279785,8.719772338867188) translate(-0.45893537998199463,-11.473384857177734) translate(-28.95466423034668,-46.53428268432617) translate(1098.2708740234375,0) translate(0,787.4299926757812) " id="svg_108">
      <use fill="#0C1F2E" stroke="#288be4" x="997.493119" y="744.433917" id="svg_117" xlink:href="#svg_113"/>
     </clipPath>
     <g stroke="null" id="svg_118" clip-path="url(#svg_108)">
      <defs fill="#0C1F2E" stroke="#288be4" transform="translate(22.946807861328125,0) translate(0,22.946788787841797) translate(0,-22.946762084960938) translate(-22.94673728942871,0) translate(22.946807861328125,0) translate(0,22.946788787841797) translate(0,-22.946762084960938) translate(-64.25093841552734,0) translate(0,1.243476390838623) translate(96.34132385253906,0) translate(-101.15997314453125,0) translate(-1.8357415199279785,8.719772338867188) translate(-0.45893537998199463,-11.473384857177734) translate(-28.95466423034668,-46.53428268432617) translate(1098.2708740234375,0) translate(0,787.4299926757812) ">
       <polygon fill="#0C1F2E" stroke="#288be4" points="-225.1,-267.1 -97.5,-267.1 -86.1,-255.1 -86.1,-232.1 -225.1,-232.1     " id="svg_112"/>
      </defs>
      <clipPath fill="#0C1F2E" stroke="#288be4" transform="translate(22.946807861328125,0) translate(0,22.946788787841797) translate(0,-22.946762084960938) translate(-22.94673728942871,0) translate(22.946807861328125,0) translate(0,22.946788787841797) translate(0,-22.946762084960938) translate(-64.25093841552734,0) translate(0,1.243476390838623) translate(96.34132385253906,0) translate(-101.15997314453125,0) translate(-1.8357415199279785,8.719772338867188) translate(-0.45893537998199463,-11.473384857177734) translate(-28.95466423034668,-46.53428268432617) translate(1098.2708740234375,0) translate(0,787.4299926757812) " id="svg_109">
       <use fill="#0C1F2E" stroke="#288be4" x="997.493119" y="744.433917" id="svg_119" xlink:href="#svg_112"/>
      </clipPath>
      <g stroke="null" id="svg_120" clip-path="url(#svg_109)">
       <defs fill="#0C1F2E" stroke="#288be4" transform="translate(22.946807861328125,0) translate(0,22.946788787841797) translate(0,-22.946762084960938) translate(-22.94673728942871,0) translate(22.946807861328125,0) translate(0,22.946788787841797) translate(0,-22.946762084960938) translate(-64.25093841552734,0) translate(0,1.243476390838623) translate(96.34132385253906,0) translate(-101.15997314453125,0) translate(-1.8357415199279785,8.719772338867188) translate(-0.45893537998199463,-11.473384857177734) translate(-28.95466423034668,-46.53428268432617) translate(1098.2708740234375,0) translate(0,787.4299926757812) ">
        <rect fill="#0C1F2E" stroke="#288be4" height="1030" width="1121" y="-802.1" x="-597.1" id="svg_111"/>
       </defs>
       <clipPath fill="#0C1F2E" stroke="#288be4" transform="translate(22.946807861328125,0) translate(0,22.946788787841797) translate(0,-22.946762084960938) translate(-22.94673728942871,0) translate(22.946807861328125,0) translate(0,22.946788787841797) translate(0,-22.946762084960938) translate(-64.25093841552734,0) translate(0,1.243476390838623) translate(96.34132385253906,0) translate(-101.15997314453125,0) translate(-1.8357415199279785,8.719772338867188) translate(-0.45893537998199463,-11.473384857177734) translate(-28.95466423034668,-46.53428268432617) translate(1098.2708740234375,0) translate(0,787.4299926757812) " id="svg_110">
        <use fill="#0C1F2E" stroke="#288be4" id="svg_121" xlink:href="#svg_111"/>
       </clipPath>
      </g>
     </g>
    </g>
    <g stroke="null" id="svg_122">
     <defs fill="#0C1F2E" stroke="#288be4" transform="translate(22.946807861328125,0) translate(0,22.946788787841797) translate(0,-22.946762084960938) translate(-22.94673728942871,0) translate(22.946807861328125,0) translate(0,22.946788787841797) translate(0,-22.946762084960938) translate(-64.25093841552734,0) translate(0,1.243476390838623) translate(96.34132385253906,0) translate(-101.15997314453125,0) translate(-1.8357415199279785,8.719772338867188) translate(-0.45893537998199463,-11.473384857177734) translate(-28.95466423034668,-46.53428268432617) translate(1098.2708740234375,0) translate(0,787.4299926757812) ">
      <polygon fill="#0C1F2E" stroke="#288be4" points="-225.1,-267.1 -97.5,-267.1 -86.1,-255.1 -86.1,-232.1 -225.1,-232.1    " id="svg_107"/>
     </defs>
     <clipPath fill="#0C1F2E" stroke="#288be4" transform="translate(22.946807861328125,0) translate(0,22.946788787841797) translate(0,-22.946762084960938) translate(-22.94673728942871,0) translate(22.946807861328125,0) translate(0,22.946788787841797) translate(0,-22.946762084960938) translate(-64.25093841552734,0) translate(0,1.243476390838623) translate(96.34132385253906,0) translate(-101.15997314453125,0) translate(-1.8357415199279785,8.719772338867188) translate(-0.45893537998199463,-11.473384857177734) translate(-28.95466423034668,-46.53428268432617) translate(1098.2708740234375,0) translate(0,787.4299926757812) " id="svg_104">
      <use fill="#0C1F2E" stroke="#288be4" x="997.493119" y="744.433917" id="svg_123" xlink:href="#svg_107"/>
     </clipPath>
     <g stroke="null" id="svg_124" clip-path="url(#svg_104)">
      <defs fill="#0C1F2E" stroke="#288be4" transform="translate(22.946807861328125,0) translate(0,22.946788787841797) translate(0,-22.946762084960938) translate(-22.94673728942871,0) translate(22.946807861328125,0) translate(0,22.946788787841797) translate(0,-22.946762084960938) translate(-64.25093841552734,0) translate(0,1.243476390838623) translate(96.34132385253906,0) translate(-101.15997314453125,0) translate(-1.8357415199279785,8.719772338867188) translate(-0.45893537998199463,-11.473384857177734) translate(-28.95466423034668,-46.53428268432617) translate(1098.2708740234375,0) translate(0,787.4299926757812) ">
       <rect fill="#0C1F2E" stroke="#288be4" height="1030" width="1121" y="-802.1" x="-597.1" id="svg_106"/>
      </defs>
      <clipPath fill="#0C1F2E" stroke="#288be4" transform="translate(22.946807861328125,0) translate(0,22.946788787841797) translate(0,-22.946762084960938) translate(-22.94673728942871,0) translate(22.946807861328125,0) translate(0,22.946788787841797) translate(0,-22.946762084960938) translate(-64.25093841552734,0) translate(0,1.243476390838623) translate(96.34132385253906,0) translate(-101.15997314453125,0) translate(-1.8357415199279785,8.719772338867188) translate(-0.45893537998199463,-11.473384857177734) translate(-28.95466423034668,-46.53428268432617) translate(1098.2708740234375,0) translate(0,787.4299926757812) " id="svg_105">
       <use fill="#0C1F2E" stroke="#288be4" id="svg_125" xlink:href="#svg_106"/>
      </clipPath>
     </g>
    </g>
    <g stroke="null" id="svg_126">
     <defs fill="#0C1F2E" stroke="#288be4" transform="translate(22.946807861328125,0) translate(0,22.946788787841797) translate(0,-22.946762084960938) translate(-22.94673728942871,0) translate(22.946807861328125,0) translate(0,22.946788787841797) translate(0,-22.946762084960938) translate(-64.25093841552734,0) translate(0,1.243476390838623) translate(96.34132385253906,0) translate(-101.15997314453125,0) translate(-1.8357415199279785,8.719772338867188) translate(-0.45893537998199463,-11.473384857177734) translate(-28.95466423034668,-46.53428268432617) translate(1098.2708740234375,0) translate(0,787.4299926757812) ">
      <path fill="#0C1F2E" stroke="#288be4" d="m-192.1,-217.2c-8,0 -14.5,-6.5 -14.5,-14.5c0,-8 6.5,-14.5 14.5,-14.5s14.5,6.5 14.5,14.5c0,8 -6.5,14.5 -14.5,14.5zm0,3c9.7,0 17.5,-7.8 17.5,-17.5c0,-9.7 -7.8,-17.5 -17.5,-17.5s-17.5,7.8 -17.5,17.5c0,9.7 7.9,17.5 17.5,17.5zm-37.5,-55l75,0l0,75l-75,0l0,-75z" id="svg_103"/>
     </defs>
     <clipPath fill="#0C1F2E" stroke="#288be4" transform="translate(22.946807861328125,0) translate(0,22.946788787841797) translate(0,-22.946762084960938) translate(-22.94673728942871,0) translate(22.946807861328125,0) translate(0,22.946788787841797) translate(0,-22.946762084960938) translate(-64.25093841552734,0) translate(0,1.243476390838623) translate(96.34132385253906,0) translate(-101.15997314453125,0) translate(-1.8357415199279785,8.719772338867188) translate(-0.45893537998199463,-11.473384857177734) translate(-28.95466423034668,-46.53428268432617) translate(1098.2708740234375,0) translate(0,787.4299926757812) " id="svg_98">
      <use fill="#0C1F2E" stroke="#288be4" x="997.493119" y="744.433917" id="svg_127" xlink:href="#svg_103"/>
     </clipPath>
     <g stroke="null" id="svg_128" clip-path="url(#svg_98)">
      <defs fill="#0C1F2E" stroke="#288be4" transform="translate(22.946807861328125,0) translate(0,22.946788787841797) translate(0,-22.946762084960938) translate(-22.94673728942871,0) translate(22.946807861328125,0) translate(0,22.946788787841797) translate(0,-22.946762084960938) translate(-64.25093841552734,0) translate(0,1.243476390838623) translate(96.34132385253906,0) translate(-101.15997314453125,0) translate(-1.8357415199279785,8.719772338867188) translate(-0.45893537998199463,-11.473384857177734) translate(-28.95466423034668,-46.53428268432617) translate(1098.2708740234375,0) translate(0,787.4299926757812) ">
       <circle fill="#0C1F2E" stroke="#288be4" r="16" cy="-231.7" cx="-192.1" id="svg_102"/>
      </defs>
      <clipPath fill="#0C1F2E" stroke="#288be4" transform="translate(22.946807861328125,0) translate(0,22.946788787841797) translate(0,-22.946762084960938) translate(-22.94673728942871,0) translate(22.946807861328125,0) translate(0,22.946788787841797) translate(0,-22.946762084960938) translate(-64.25093841552734,0) translate(0,1.243476390838623) translate(96.34132385253906,0) translate(-101.15997314453125,0) translate(-1.8357415199279785,8.719772338867188) translate(-0.45893537998199463,-11.473384857177734) translate(-28.95466423034668,-46.53428268432617) translate(1098.2708740234375,0) translate(0,787.4299926757812) " id="svg_99">
       <use fill="#0C1F2E" stroke="#288be4" x="997.493119" y="744.433917" id="svg_129" xlink:href="#svg_102"/>
      </clipPath>
      <g stroke="null" id="svg_130" clip-path="url(#svg_99)">
       <defs fill="#0C1F2E" stroke="#288be4" transform="translate(22.946807861328125,0) translate(0,22.946788787841797) translate(0,-22.946762084960938) translate(-22.94673728942871,0) translate(22.946807861328125,0) translate(0,22.946788787841797) translate(0,-22.946762084960938) translate(-64.25093841552734,0) translate(0,1.243476390838623) translate(96.34132385253906,0) translate(-101.15997314453125,0) translate(-1.8357415199279785,8.719772338867188) translate(-0.45893537998199463,-11.473384857177734) translate(-28.95466423034668,-46.53428268432617) translate(1098.2708740234375,0) translate(0,787.4299926757812) ">
        <rect fill="#0C1F2E" stroke="#288be4" height="1030" width="1121" y="-802.1" x="-597.1" id="svg_101"/>
       </defs>
       <clipPath fill="#0C1F2E" stroke="#288be4" transform="translate(22.946807861328125,0) translate(0,22.946788787841797) translate(0,-22.946762084960938) translate(-22.94673728942871,0) translate(22.946807861328125,0) translate(0,22.946788787841797) translate(0,-22.946762084960938) translate(-64.25093841552734,0) translate(0,1.243476390838623) translate(96.34132385253906,0) translate(-101.15997314453125,0) translate(-1.8357415199279785,8.719772338867188) translate(-0.45893537998199463,-11.473384857177734) translate(-28.95466423034668,-46.53428268432617) translate(1098.2708740234375,0) translate(0,787.4299926757812) " id="svg_100">
        <use fill="#0C1F2E" stroke="#288be4" id="svg_131" xlink:href="#svg_101"/>
       </clipPath>
      </g>
     </g>
    </g>
    <g stroke="null" id="svg_132">
     <defs fill="#0C1F2E" stroke="#288be4" transform="translate(22.946807861328125,0) translate(0,22.946788787841797) translate(0,-22.946762084960938) translate(-22.94673728942871,0) translate(22.946807861328125,0) translate(0,22.946788787841797) translate(0,-22.946762084960938) translate(-64.25093841552734,0) translate(0,1.243476390838623) translate(96.34132385253906,0) translate(-101.15997314453125,0) translate(-1.8357415199279785,8.719772338867188) translate(-0.45893537998199463,-11.473384857177734) translate(-28.95466423034668,-46.53428268432617) translate(1098.2708740234375,0) translate(0,787.4299926757812) ">
      <circle fill="#0C1F2E" stroke="#288be4" r="16" cy="-231.7" cx="-192.1" id="svg_97"/>
     </defs>
     <clipPath fill="#0C1F2E" stroke="#288be4" transform="translate(22.946807861328125,0) translate(0,22.946788787841797) translate(0,-22.946762084960938) translate(-22.94673728942871,0) translate(22.946807861328125,0) translate(0,22.946788787841797) translate(0,-22.946762084960938) translate(-64.25093841552734,0) translate(0,1.243476390838623) translate(96.34132385253906,0) translate(-101.15997314453125,0) translate(-1.8357415199279785,8.719772338867188) translate(-0.45893537998199463,-11.473384857177734) translate(-28.95466423034668,-46.53428268432617) translate(1098.2708740234375,0) translate(0,787.4299926757812) " id="svg_94">
      <use fill="#0C1F2E" stroke="#288be4" x="997.493119" y="744.433917" id="svg_133" xlink:href="#svg_97"/>
     </clipPath>
     <g stroke="null" id="svg_134" clip-path="url(#svg_94)">
      <defs fill="#0C1F2E" stroke="#288be4" transform="translate(22.946807861328125,0) translate(0,22.946788787841797) translate(0,-22.946762084960938) translate(-22.94673728942871,0) translate(22.946807861328125,0) translate(0,22.946788787841797) translate(0,-22.946762084960938) translate(-64.25093841552734,0) translate(0,1.243476390838623) translate(96.34132385253906,0) translate(-101.15997314453125,0) translate(-1.8357415199279785,8.719772338867188) translate(-0.45893537998199463,-11.473384857177734) translate(-28.95466423034668,-46.53428268432617) translate(1098.2708740234375,0) translate(0,787.4299926757812) ">
       <rect fill="#0C1F2E" stroke="#288be4" height="1030" width="1121" y="-802.1" x="-597.1" id="svg_96"/>
      </defs>
      <clipPath fill="#0C1F2E" stroke="#288be4" transform="translate(22.946807861328125,0) translate(0,22.946788787841797) translate(0,-22.946762084960938) translate(-22.94673728942871,0) translate(22.946807861328125,0) translate(0,22.946788787841797) translate(0,-22.946762084960938) translate(-64.25093841552734,0) translate(0,1.243476390838623) translate(96.34132385253906,0) translate(-101.15997314453125,0) translate(-1.8357415199279785,8.719772338867188) translate(-0.45893537998199463,-11.473384857177734) translate(-28.95466423034668,-46.53428268432617) translate(1098.2708740234375,0) translate(0,787.4299926757812) " id="svg_95">
       <use fill="#0C1F2E" stroke="#288be4" id="svg_135" xlink:href="#svg_96"/>
      </clipPath>
     </g>
    </g>
    <g stroke="null" id="svg_136">
     <defs fill="#0C1F2E" stroke="#288be4" transform="translate(22.946807861328125,0) translate(0,22.946788787841797) translate(0,-22.946762084960938) translate(-22.94673728942871,0) translate(22.946807861328125,0) translate(0,22.946788787841797) translate(0,-22.946762084960938) translate(-64.25093841552734,0) translate(0,1.243476390838623) translate(96.34132385253906,0) translate(-101.15997314453125,0) translate(-1.8357415199279785,8.719772338867188) translate(-0.45893537998199463,-11.473384857177734) translate(-28.95466423034668,-46.53428268432617) translate(1098.2708740234375,0) translate(0,787.4299926757812) ">
      <path fill="#0C1F2E" stroke="#288be4" d="m-192.1,-224.2c-4.1,0 -7.5,-3.4 -7.5,-7.5c0,-4.1 3.4,-7.5 7.5,-7.5s7.5,3.4 7.5,7.5c0,4.2 -3.3,7.5 -7.5,7.5zm0,3c5.8,0 10.5,-4.7 10.5,-10.5c0,-5.8 -4.7,-10.5 -10.5,-10.5s-10.5,4.7 -10.5,10.5c0,5.8 4.7,10.5 10.5,10.5zm-30.5,-41l61,0l0,61l-61,0l0,-61z" id="svg_93"/>
     </defs>
     <clipPath fill="#0C1F2E" stroke="#288be4" transform="translate(22.946807861328125,0) translate(0,22.946788787841797) translate(0,-22.946762084960938) translate(-22.94673728942871,0) translate(22.946807861328125,0) translate(0,22.946788787841797) translate(0,-22.946762084960938) translate(-64.25093841552734,0) translate(0,1.243476390838623) translate(96.34132385253906,0) translate(-101.15997314453125,0) translate(-1.8357415199279785,8.719772338867188) translate(-0.45893537998199463,-11.473384857177734) translate(-28.95466423034668,-46.53428268432617) translate(1098.2708740234375,0) translate(0,787.4299926757812) " id="svg_88">
      <use fill="#0C1F2E" stroke="#288be4" x="997.493119" y="744.433917" id="svg_137" xlink:href="#svg_93"/>
     </clipPath>
     <g stroke="null" id="svg_138" clip-path="url(#svg_88)">
      <defs fill="#0C1F2E" stroke="#288be4" transform="translate(22.946807861328125,0) translate(0,22.946788787841797) translate(0,-22.946762084960938) translate(-22.94673728942871,0) translate(22.946807861328125,0) translate(0,22.946788787841797) translate(0,-22.946762084960938) translate(-64.25093841552734,0) translate(0,1.243476390838623) translate(96.34132385253906,0) translate(-101.15997314453125,0) translate(-1.8357415199279785,8.719772338867188) translate(-0.45893537998199463,-11.473384857177734) translate(-28.95466423034668,-46.53428268432617) translate(1098.2708740234375,0) translate(0,787.4299926757812) ">
       <circle fill="#0C1F2E" stroke="#288be4" r="9" cy="-231.7" cx="-192.1" id="svg_92"/>
      </defs>
      <clipPath fill="#0C1F2E" stroke="#288be4" transform="translate(22.946807861328125,0) translate(0,22.946788787841797) translate(0,-22.946762084960938) translate(-22.94673728942871,0) translate(22.946807861328125,0) translate(0,22.946788787841797) translate(0,-22.946762084960938) translate(-64.25093841552734,0) translate(0,1.243476390838623) translate(96.34132385253906,0) translate(-101.15997314453125,0) translate(-1.8357415199279785,8.719772338867188) translate(-0.45893537998199463,-11.473384857177734) translate(-28.95466423034668,-46.53428268432617) translate(1098.2708740234375,0) translate(0,787.4299926757812) " id="svg_89">
       <use fill="#0C1F2E" stroke="#288be4" x="997.493119" y="744.433917" id="svg_139" xlink:href="#svg_92"/>
      </clipPath>
      <g stroke="null" id="svg_140" clip-path="url(#svg_89)">
       <defs fill="#0C1F2E" stroke="#288be4" transform="translate(22.946807861328125,0) translate(0,22.946788787841797) translate(0,-22.946762084960938) translate(-22.94673728942871,0) translate(22.946807861328125,0) translate(0,22.946788787841797) translate(0,-22.946762084960938) translate(-64.25093841552734,0) translate(0,1.243476390838623) translate(96.34132385253906,0) translate(-101.15997314453125,0) translate(-1.8357415199279785,8.719772338867188) translate(-0.45893537998199463,-11.473384857177734) translate(-28.95466423034668,-46.53428268432617) translate(1098.2708740234375,0) translate(0,787.4299926757812) ">
        <rect fill="#0C1F2E" stroke="#288be4" height="1030" width="1121" y="-802.1" x="-597.1" id="svg_91"/>
       </defs>
       <clipPath fill="#0C1F2E" stroke="#288be4" transform="translate(22.946807861328125,0) translate(0,22.946788787841797) translate(0,-22.946762084960938) translate(-22.94673728942871,0) translate(22.946807861328125,0) translate(0,22.946788787841797) translate(0,-22.946762084960938) translate(-64.25093841552734,0) translate(0,1.243476390838623) translate(96.34132385253906,0) translate(-101.15997314453125,0) translate(-1.8357415199279785,8.719772338867188) translate(-0.45893537998199463,-11.473384857177734) translate(-28.95466423034668,-46.53428268432617) translate(1098.2708740234375,0) translate(0,787.4299926757812) " id="svg_90">
        <use fill="#0C1F2E" stroke="#288be4" id="svg_141" xlink:href="#svg_91"/>
       </clipPath>
      </g>
     </g>
    </g>
    <g stroke="null" id="svg_142">
     <defs fill="#0C1F2E" stroke="#288be4" transform="translate(22.946807861328125,0) translate(0,22.946788787841797) translate(0,-22.946762084960938) translate(-22.94673728942871,0) translate(22.946807861328125,0) translate(0,22.946788787841797) translate(0,-22.946762084960938) translate(-64.25093841552734,0) translate(0,1.243476390838623) translate(96.34132385253906,0) translate(-101.15997314453125,0) translate(-1.8357415199279785,8.719772338867188) translate(-0.45893537998199463,-11.473384857177734) translate(-28.95466423034668,-46.53428268432617) translate(1098.2708740234375,0) translate(0,787.4299926757812) ">
      <circle fill="#0C1F2E" stroke="#288be4" r="9" cy="-231.7" cx="-192.1" id="svg_87"/>
     </defs>
     <clipPath fill="#0C1F2E" stroke="#288be4" transform="translate(22.946807861328125,0) translate(0,22.946788787841797) translate(0,-22.946762084960938) translate(-22.94673728942871,0) translate(22.946807861328125,0) translate(0,22.946788787841797) translate(0,-22.946762084960938) translate(-64.25093841552734,0) translate(0,1.243476390838623) translate(96.34132385253906,0) translate(-101.15997314453125,0) translate(-1.8357415199279785,8.719772338867188) translate(-0.45893537998199463,-11.473384857177734) translate(-28.95466423034668,-46.53428268432617) translate(1098.2708740234375,0) translate(0,787.4299926757812) " id="svg_84">
      <use fill="#0C1F2E" stroke="#288be4" x="997.493119" y="744.433917" id="svg_143" xlink:href="#svg_87"/>
     </clipPath>
     <g stroke="null" id="svg_144" clip-path="url(#svg_84)">
      <defs fill="#0C1F2E" stroke="#288be4" transform="translate(22.946807861328125,0) translate(0,22.946788787841797) translate(0,-22.946762084960938) translate(-22.94673728942871,0) translate(22.946807861328125,0) translate(0,22.946788787841797) translate(0,-22.946762084960938) translate(-64.25093841552734,0) translate(0,1.243476390838623) translate(96.34132385253906,0) translate(-101.15997314453125,0) translate(-1.8357415199279785,8.719772338867188) translate(-0.45893537998199463,-11.473384857177734) translate(-28.95466423034668,-46.53428268432617) translate(1098.2708740234375,0) translate(0,787.4299926757812) ">
       <rect fill="#0C1F2E" stroke="#288be4" height="1030" width="1121" y="-802.1" x="-597.1" id="svg_86"/>
      </defs>
      <clipPath fill="#0C1F2E" stroke="#288be4" transform="translate(22.946807861328125,0) translate(0,22.946788787841797) translate(0,-22.946762084960938) translate(-22.94673728942871,0) translate(22.946807861328125,0) translate(0,22.946788787841797) translate(0,-22.946762084960938) translate(-64.25093841552734,0) translate(0,1.243476390838623) translate(96.34132385253906,0) translate(-101.15997314453125,0) translate(-1.8357415199279785,8.719772338867188) translate(-0.45893537998199463,-11.473384857177734) translate(-28.95466423034668,-46.53428268432617) translate(1098.2708740234375,0) translate(0,787.4299926757812) " id="svg_85">
       <use fill="#0C1F2E" stroke="#288be4" id="svg_145" xlink:href="#svg_86"/>
      </clipPath>
     </g>
    </g>
    <g stroke="null" id="svg_146">
     <defs fill="#0C1F2E" stroke="#288be4" transform="translate(22.946807861328125,0) translate(0,22.946788787841797) translate(0,-22.946762084960938) translate(-22.94673728942871,0) translate(22.946807861328125,0) translate(0,22.946788787841797) translate(0,-22.946762084960938) translate(-64.25093841552734,0) translate(0,1.243476390838623) translate(96.34132385253906,0) translate(-101.15997314453125,0) translate(-1.8357415199279785,8.719772338867188) translate(-0.45893537998199463,-11.473384857177734) translate(-28.95466423034668,-46.53428268432617) translate(1098.2708740234375,0) translate(0,787.4299926757812) ">
      <path fill="#0C1F2E" stroke="#288be4" d="m-125.8,-217.2c-8,0 -14.5,-6.5 -14.5,-14.5c0,-8 6.5,-14.5 14.5,-14.5c8,0 14.5,6.5 14.5,14.5c0,8 -6.5,14.5 -14.5,14.5zm0,3c9.7,0 17.5,-7.8 17.5,-17.5c0,-9.7 -7.8,-17.5 -17.5,-17.5s-17.5,7.8 -17.5,17.5c0,9.7 7.8,17.5 17.5,17.5zm-37.5,-55l75,0l0,75l-75,0l0,-75z" id="svg_83"/>
     </defs>
     <clipPath fill="#0C1F2E" stroke="#288be4" transform="translate(22.946807861328125,0) translate(0,22.946788787841797) translate(0,-22.946762084960938) translate(-22.94673728942871,0) translate(22.946807861328125,0) translate(0,22.946788787841797) translate(0,-22.946762084960938) translate(-64.25093841552734,0) translate(0,1.243476390838623) translate(96.34132385253906,0) translate(-101.15997314453125,0) translate(-1.8357415199279785,8.719772338867188) translate(-0.45893537998199463,-11.473384857177734) translate(-28.95466423034668,-46.53428268432617) translate(1098.2708740234375,0) translate(0,787.4299926757812) " id="svg_78">
      <use fill="#0C1F2E" stroke="#288be4" x="997.493119" y="744.433917" id="svg_147" xlink:href="#svg_83"/>
     </clipPath>
     <g stroke="null" id="svg_148" clip-path="url(#svg_78)">
      <defs fill="#0C1F2E" stroke="#288be4" transform="translate(22.946807861328125,0) translate(0,22.946788787841797) translate(0,-22.946762084960938) translate(-22.94673728942871,0) translate(22.946807861328125,0) translate(0,22.946788787841797) translate(0,-22.946762084960938) translate(-64.25093841552734,0) translate(0,1.243476390838623) translate(96.34132385253906,0) translate(-101.15997314453125,0) translate(-1.8357415199279785,8.719772338867188) translate(-0.45893537998199463,-11.473384857177734) translate(-28.95466423034668,-46.53428268432617) translate(1098.2708740234375,0) translate(0,787.4299926757812) ">
       <circle fill="#0C1F2E" stroke="#288be4" r="16" cy="-231.7" cx="-125.8" id="svg_82"/>
      </defs>
      <clipPath fill="#0C1F2E" stroke="#288be4" transform="translate(22.946807861328125,0) translate(0,22.946788787841797) translate(0,-22.946762084960938) translate(-22.94673728942871,0) translate(22.946807861328125,0) translate(0,22.946788787841797) translate(0,-22.946762084960938) translate(-64.25093841552734,0) translate(0,1.243476390838623) translate(96.34132385253906,0) translate(-101.15997314453125,0) translate(-1.8357415199279785,8.719772338867188) translate(-0.45893537998199463,-11.473384857177734) translate(-28.95466423034668,-46.53428268432617) translate(1098.2708740234375,0) translate(0,787.4299926757812) " id="svg_79">
       <use fill="#0C1F2E" stroke="#288be4" x="997.493119" y="744.433917" id="svg_149" xlink:href="#svg_82"/>
      </clipPath>
      <g stroke="null" id="svg_150" clip-path="url(#svg_79)">
       <defs fill="#0C1F2E" stroke="#288be4" transform="translate(22.946807861328125,0) translate(0,22.946788787841797) translate(0,-22.946762084960938) translate(-22.94673728942871,0) translate(22.946807861328125,0) translate(0,22.946788787841797) translate(0,-22.946762084960938) translate(-64.25093841552734,0) translate(0,1.243476390838623) translate(96.34132385253906,0) translate(-101.15997314453125,0) translate(-1.8357415199279785,8.719772338867188) translate(-0.45893537998199463,-11.473384857177734) translate(-28.95466423034668,-46.53428268432617) translate(1098.2708740234375,0) translate(0,787.4299926757812) ">
        <rect fill="#0C1F2E" stroke="#288be4" height="1030" width="1121" y="-802.1" x="-597.1" id="svg_81"/>
       </defs>
       <clipPath fill="#0C1F2E" stroke="#288be4" transform="translate(22.946807861328125,0) translate(0,22.946788787841797) translate(0,-22.946762084960938) translate(-22.94673728942871,0) translate(22.946807861328125,0) translate(0,22.946788787841797) translate(0,-22.946762084960938) translate(-64.25093841552734,0) translate(0,1.243476390838623) translate(96.34132385253906,0) translate(-101.15997314453125,0) translate(-1.8357415199279785,8.719772338867188) translate(-0.45893537998199463,-11.473384857177734) translate(-28.95466423034668,-46.53428268432617) translate(1098.2708740234375,0) translate(0,787.4299926757812) " id="svg_80">
        <use fill="#0C1F2E" stroke="#288be4" id="svg_151" xlink:href="#svg_81"/>
       </clipPath>
      </g>
     </g>
    </g>
    <g stroke="null" id="svg_152">
     <defs fill="#0C1F2E" stroke="#288be4" transform="translate(22.946807861328125,0) translate(0,22.946788787841797) translate(0,-22.946762084960938) translate(-22.94673728942871,0) translate(22.946807861328125,0) translate(0,22.946788787841797) translate(0,-22.946762084960938) translate(-64.25093841552734,0) translate(0,1.243476390838623) translate(96.34132385253906,0) translate(-101.15997314453125,0) translate(-1.8357415199279785,8.719772338867188) translate(-0.45893537998199463,-11.473384857177734) translate(-28.95466423034668,-46.53428268432617) translate(1098.2708740234375,0) translate(0,787.4299926757812) ">
      <circle fill="#0C1F2E" stroke="#288be4" r="16" cy="-231.7" cx="-125.8" id="svg_77"/>
     </defs>
     <clipPath fill="#0C1F2E" stroke="#288be4" transform="translate(22.946807861328125,0) translate(0,22.946788787841797) translate(0,-22.946762084960938) translate(-22.94673728942871,0) translate(22.946807861328125,0) translate(0,22.946788787841797) translate(0,-22.946762084960938) translate(-64.25093841552734,0) translate(0,1.243476390838623) translate(96.34132385253906,0) translate(-101.15997314453125,0) translate(-1.8357415199279785,8.719772338867188) translate(-0.45893537998199463,-11.473384857177734) translate(-28.95466423034668,-46.53428268432617) translate(1098.2708740234375,0) translate(0,787.4299926757812) " id="svg_74">
      <use fill="#0C1F2E" stroke="#288be4" x="997.493119" y="744.433917" id="svg_153" xlink:href="#svg_77"/>
     </clipPath>
     <g stroke="null" id="svg_154" clip-path="url(#svg_74)">
      <defs fill="#0C1F2E" stroke="#288be4" transform="translate(22.946807861328125,0) translate(0,22.946788787841797) translate(0,-22.946762084960938) translate(-22.94673728942871,0) translate(22.946807861328125,0) translate(0,22.946788787841797) translate(0,-22.946762084960938) translate(-64.25093841552734,0) translate(0,1.243476390838623) translate(96.34132385253906,0) translate(-101.15997314453125,0) translate(-1.8357415199279785,8.719772338867188) translate(-0.45893537998199463,-11.473384857177734) translate(-28.95466423034668,-46.53428268432617) translate(1098.2708740234375,0) translate(0,787.4299926757812) ">
       <rect fill="#0C1F2E" stroke="#288be4" height="1030" width="1121" y="-802.1" x="-597.1" id="svg_76"/>
      </defs>
      <clipPath fill="#0C1F2E" stroke="#288be4" transform="translate(22.946807861328125,0) translate(0,22.946788787841797) translate(0,-22.946762084960938) translate(-22.94673728942871,0) translate(22.946807861328125,0) translate(0,22.946788787841797) translate(0,-22.946762084960938) translate(-64.25093841552734,0) translate(0,1.243476390838623) translate(96.34132385253906,0) translate(-101.15997314453125,0) translate(-1.8357415199279785,8.719772338867188) translate(-0.45893537998199463,-11.473384857177734) translate(-28.95466423034668,-46.53428268432617) translate(1098.2708740234375,0) translate(0,787.4299926757812) " id="svg_75">
       <use fill="#0C1F2E" stroke="#288be4" id="svg_155" xlink:href="#svg_76"/>
      </clipPath>
     </g>
    </g>
    <g stroke="null" id="svg_156">
     <defs fill="#0C1F2E" stroke="#288be4" transform="translate(22.946807861328125,0) translate(0,22.946788787841797) translate(0,-22.946762084960938) translate(-22.94673728942871,0) translate(22.946807861328125,0) translate(0,22.946788787841797) translate(0,-22.946762084960938) translate(-64.25093841552734,0) translate(0,1.243476390838623) translate(96.34132385253906,0) translate(-101.15997314453125,0) translate(-1.8357415199279785,8.719772338867188) translate(-0.45893537998199463,-11.473384857177734) translate(-28.95466423034668,-46.53428268432617) translate(1098.2708740234375,0) translate(0,787.4299926757812) ">
      <path fill="#0C1F2E" stroke="#288be4" d="m-125.6,-272l-7.7,-15.6l-27.2,0l0,15.6l34.9,0zm-75.2,0l7.4,-15.6l27.2,0l0,15.6l-34.6,0zm-10.3,5.3l14.1,-26.9l66.8,0l15.3,27.9l-96.2,-1z" id="svg_73"/>
     </defs>
     <clipPath fill="#0C1F2E" stroke="#288be4" transform="translate(22.946807861328125,0) translate(0,22.946788787841797) translate(0,-22.946762084960938) translate(-22.94673728942871,0) translate(22.946807861328125,0) translate(0,22.946788787841797) translate(0,-22.946762084960938) translate(-64.25093841552734,0) translate(0,1.243476390838623) translate(96.34132385253906,0) translate(-101.15997314453125,0) translate(-1.8357415199279785,8.719772338867188) translate(-0.45893537998199463,-11.473384857177734) translate(-28.95466423034668,-46.53428268432617) translate(1098.2708740234375,0) translate(0,787.4299926757812) " id="svg_70">
      <use fill="#0C1F2E" stroke="#288be4" x="997.493119" y="744.433917" id="svg_157" xlink:href="#svg_73"/>
     </clipPath>
     <g stroke="null" id="svg_158" clip-path="url(#svg_70)">
      <defs fill="#0C1F2E" stroke="#288be4" transform="translate(22.946807861328125,0) translate(0,22.946788787841797) translate(0,-22.946762084960938) translate(-22.94673728942871,0) translate(22.946807861328125,0) translate(0,22.946788787841797) translate(0,-22.946762084960938) translate(-64.25093841552734,0) translate(0,1.243476390838623) translate(96.34132385253906,0) translate(-101.15997314453125,0) translate(-1.8357415199279785,8.719772338867188) translate(-0.45893537998199463,-11.473384857177734) translate(-28.95466423034668,-46.53428268432617) translate(1098.2708740234375,0) translate(0,787.4299926757812) ">
       <rect fill="#0C1F2E" stroke="#288be4" height="1030" width="1121" y="-802.1" x="-597.1" id="svg_72"/>
      </defs>
      <clipPath fill="#0C1F2E" stroke="#288be4" transform="translate(22.946807861328125,0) translate(0,22.946788787841797) translate(0,-22.946762084960938) translate(-22.94673728942871,0) translate(22.946807861328125,0) translate(0,22.946788787841797) translate(0,-22.946762084960938) translate(-64.25093841552734,0) translate(0,1.243476390838623) translate(96.34132385253906,0) translate(-101.15997314453125,0) translate(-1.8357415199279785,8.719772338867188) translate(-0.45893537998199463,-11.473384857177734) translate(-28.95466423034668,-46.53428268432617) translate(1098.2708740234375,0) translate(0,787.4299926757812) " id="svg_71">
       <use fill="#0C1F2E" stroke="#288be4" id="svg_159" xlink:href="#svg_72"/>
      </clipPath>
     </g>
    </g>
    <g stroke="null" id="svg_160">
     <defs fill="#0C1F2E" stroke="#288be4" transform="translate(22.946807861328125,0) translate(0,22.946788787841797) translate(0,-22.946762084960938) translate(-22.94673728942871,0) translate(22.946807861328125,0) translate(0,22.946788787841797) translate(0,-22.946762084960938) translate(-64.25093841552734,0) translate(0,1.243476390838623) translate(96.34132385253906,0) translate(-101.15997314453125,0) translate(-1.8357415199279785,8.719772338867188) translate(-0.45893537998199463,-11.473384857177734) translate(-28.95466423034668,-46.53428268432617) translate(1098.2708740234375,0) translate(0,787.4299926757812) ">
      <path fill="#0C1F2E" stroke="#288be4" d="m-125.8,-224.2c-4.1,0 -7.5,-3.4 -7.5,-7.5c0,-4.1 3.4,-7.5 7.5,-7.5c4.1,0 7.5,3.4 7.5,7.5c0,4.2 -3.4,7.5 -7.5,7.5zm0,3c5.8,0 10.5,-4.7 10.5,-10.5c0,-5.8 -4.7,-10.5 -10.5,-10.5c-5.8,0 -10.5,4.7 -10.5,10.5c0,5.8 4.7,10.5 10.5,10.5zm-30.5,-41l61,0l0,61l-61,0l0,-61z" id="svg_69"/>
     </defs>
     <clipPath fill="#0C1F2E" stroke="#288be4" transform="translate(22.946807861328125,0) translate(0,22.946788787841797) translate(0,-22.946762084960938) translate(-22.94673728942871,0) translate(22.946807861328125,0) translate(0,22.946788787841797) translate(0,-22.946762084960938) translate(-64.25093841552734,0) translate(0,1.243476390838623) translate(96.34132385253906,0) translate(-101.15997314453125,0) translate(-1.8357415199279785,8.719772338867188) translate(-0.45893537998199463,-11.473384857177734) translate(-28.95466423034668,-46.53428268432617) translate(1098.2708740234375,0) translate(0,787.4299926757812) " id="svg_64">
      <use fill="#0C1F2E" stroke="#288be4" x="997.493119" y="744.433917" id="svg_161" xlink:href="#svg_69"/>
     </clipPath>
     <g stroke="null" id="svg_162" clip-path="url(#svg_64)">
      <defs fill="#0C1F2E" stroke="#288be4" transform="translate(22.946807861328125,0) translate(0,22.946788787841797) translate(0,-22.946762084960938) translate(-22.94673728942871,0) translate(22.946807861328125,0) translate(0,22.946788787841797) translate(0,-22.946762084960938) translate(-64.25093841552734,0) translate(0,1.243476390838623) translate(96.34132385253906,0) translate(-101.15997314453125,0) translate(-1.8357415199279785,8.719772338867188) translate(-0.45893537998199463,-11.473384857177734) translate(-28.95466423034668,-46.53428268432617) translate(1098.2708740234375,0) translate(0,787.4299926757812) ">
       <circle fill="#0C1F2E" stroke="#288be4" r="9" cy="-231.7" cx="-125.8" id="svg_68"/>
      </defs>
      <clipPath fill="#0C1F2E" stroke="#288be4" transform="translate(22.946807861328125,0) translate(0,22.946788787841797) translate(0,-22.946762084960938) translate(-22.94673728942871,0) translate(22.946807861328125,0) translate(0,22.946788787841797) translate(0,-22.946762084960938) translate(-64.25093841552734,0) translate(0,1.243476390838623) translate(96.34132385253906,0) translate(-101.15997314453125,0) translate(-1.8357415199279785,8.719772338867188) translate(-0.45893537998199463,-11.473384857177734) translate(-28.95466423034668,-46.53428268432617) translate(1098.2708740234375,0) translate(0,787.4299926757812) " id="svg_65">
       <use fill="#0C1F2E" stroke="#288be4" x="997.493119" y="744.433917" id="svg_163" xlink:href="#svg_68"/>
      </clipPath>
      <g stroke="null" id="svg_164" clip-path="url(#svg_65)">
       <defs fill="#0C1F2E" stroke="#288be4" transform="translate(22.946807861328125,0) translate(0,22.946788787841797) translate(0,-22.946762084960938) translate(-22.94673728942871,0) translate(22.946807861328125,0) translate(0,22.946788787841797) translate(0,-22.946762084960938) translate(-64.25093841552734,0) translate(0,1.243476390838623) translate(96.34132385253906,0) translate(-101.15997314453125,0) translate(-1.8357415199279785,8.719772338867188) translate(-0.45893537998199463,-11.473384857177734) translate(-28.95466423034668,-46.53428268432617) translate(1098.2708740234375,0) translate(0,787.4299926757812) ">
        <rect fill="#0C1F2E" stroke="#288be4" height="1030" width="1121" y="-802.1" x="-597.1" id="svg_67"/>
       </defs>
       <clipPath fill="#0C1F2E" stroke="#288be4" transform="translate(22.946807861328125,0) translate(0,22.946788787841797) translate(0,-22.946762084960938) translate(-22.94673728942871,0) translate(22.946807861328125,0) translate(0,22.946788787841797) translate(0,-22.946762084960938) translate(-64.25093841552734,0) translate(0,1.243476390838623) translate(96.34132385253906,0) translate(-101.15997314453125,0) translate(-1.8357415199279785,8.719772338867188) translate(-0.45893537998199463,-11.473384857177734) translate(-28.95466423034668,-46.53428268432617) translate(1098.2708740234375,0) translate(0,787.4299926757812) " id="svg_66">
        <use fill="#0C1F2E" stroke="#288be4" id="svg_165" xlink:href="#svg_67"/>
       </clipPath>
      </g>
     </g>
    </g>
    <g stroke="null" id="svg_166">
     <defs fill="#0C1F2E" stroke="#288be4" transform="translate(22.946807861328125,0) translate(0,22.946788787841797) translate(0,-22.946762084960938) translate(-22.94673728942871,0) translate(22.946807861328125,0) translate(0,22.946788787841797) translate(0,-22.946762084960938) translate(-64.25093841552734,0) translate(0,1.243476390838623) translate(96.34132385253906,0) translate(-101.15997314453125,0) translate(-1.8357415199279785,8.719772338867188) translate(-0.45893537998199463,-11.473384857177734) translate(-28.95466423034668,-46.53428268432617) translate(1098.2708740234375,0) translate(0,787.4299926757812) ">
      <circle fill="#0C1F2E" stroke="#288be4" r="9" cy="-231.7" cx="-125.8" id="svg_63"/>
     </defs>
     <clipPath fill="#0C1F2E" stroke="#288be4" transform="translate(22.946807861328125,0) translate(0,22.946788787841797) translate(0,-22.946762084960938) translate(-22.94673728942871,0) translate(22.946807861328125,0) translate(0,22.946788787841797) translate(0,-22.946762084960938) translate(-64.25093841552734,0) translate(0,1.243476390838623) translate(96.34132385253906,0) translate(-101.15997314453125,0) translate(-1.8357415199279785,8.719772338867188) translate(-0.45893537998199463,-11.473384857177734) translate(-28.95466423034668,-46.53428268432617) translate(1098.2708740234375,0) translate(0,787.4299926757812) " id="svg_60">
      <use fill="#0C1F2E" stroke="#288be4" x="997.493119" y="744.433917" id="svg_167" xlink:href="#svg_63"/>
     </clipPath>
     <g stroke="null" id="svg_168" clip-path="url(#svg_60)">
      <defs fill="#0C1F2E" stroke="#288be4" transform="translate(22.946807861328125,0) translate(0,22.946788787841797) translate(0,-22.946762084960938) translate(-22.94673728942871,0) translate(22.946807861328125,0) translate(0,22.946788787841797) translate(0,-22.946762084960938) translate(-64.25093841552734,0) translate(0,1.243476390838623) translate(96.34132385253906,0) translate(-101.15997314453125,0) translate(-1.8357415199279785,8.719772338867188) translate(-0.45893537998199463,-11.473384857177734) translate(-28.95466423034668,-46.53428268432617) translate(1098.2708740234375,0) translate(0,787.4299926757812) ">
       <rect fill="#0C1F2E" stroke="#288be4" height="1030" width="1121" y="-802.1" x="-597.1" id="svg_62"/>
      </defs>
      <clipPath fill="#0C1F2E" stroke="#288be4" transform="translate(22.946807861328125,0) translate(0,22.946788787841797) translate(0,-22.946762084960938) translate(-22.94673728942871,0) translate(22.946807861328125,0) translate(0,22.946788787841797) translate(0,-22.946762084960938) translate(-64.25093841552734,0) translate(0,1.243476390838623) translate(96.34132385253906,0) translate(-101.15997314453125,0) translate(-1.8357415199279785,8.719772338867188) translate(-0.45893537998199463,-11.473384857177734) translate(-28.95466423034668,-46.53428268432617) translate(1098.2708740234375,0) translate(0,787.4299926757812) " id="svg_61">
       <use fill="#0C1F2E" stroke="#288be4" id="svg_169" xlink:href="#svg_62"/>
      </clipPath>
     </g>
    </g>
    <polygon stroke="#288be4" id="svg_170" points="1201.9985656738281,856.8855590820312 1128.4985656738281,856.8855590820312 1128.4985656738281,760.9855346679688 1177.6987609863281,760.9855346679688 1201.9985656738281,782.8855590820312 " stroke-miterlimit="10" stroke-linecap="round" stroke-width="3" fill="#0C1F2E"/>
    <g stroke="null" id="svg_171">
     <line stroke="#288be4" id="svg_172" y2="797.885627" x2="1189.698824" y1="797.885627" x1="1140.798824" stroke-miterlimit="10" stroke-linecap="round" stroke-width="3" fill="#0C1F2E"/>
     <line stroke="#288be4" id="svg_173" y2="808.985627" x2="1189.698824" y1="808.985627" x1="1140.798824" stroke-miterlimit="10" stroke-linecap="round" stroke-width="3" fill="#0C1F2E"/>
    </g>
    <g stroke="null" id="svg_174">
     <line stroke="#288be4" id="svg_175" y2="821.885627" x2="1189.698824" y1="821.885627" x1="1140.798824" stroke-miterlimit="10" stroke-linecap="round" stroke-width="3" fill="#0C1F2E"/>
     <line stroke="#288be4" id="svg_176" y2="832.985627" x2="1189.698824" y1="832.985627" x1="1140.798824" stroke-miterlimit="10" stroke-linecap="round" stroke-width="3" fill="#0C1F2E"/>
    </g>
    <polyline stroke="#288be4" id="svg_177" points="1177.6987609863281,760.9855346679688 1177.6987609863281,782.8855590820312 1201.9985656738281,782.8855590820312 " stroke-miterlimit="10" stroke-linecap="round" stroke-width="3" fill="#0C1F2E"/>
   </g>
  </g>
 </g>
</svg>